# xmcd
#
# Track frame offsets: 
#        150
#        25137
#        48525
#        76887
#        95025
#
# Disc length: 1800 seconds
#
# Revision: 2
# Processed by: cddbd v1.5.1PL0 Copyright (c) Steve Scherf et al.
# Submitted via: ExactAudioCopy v0.95a5
#
DISCID=36070605
DTITLE=Jalal - Mankind
DYEAR=1993
DGENRE=
TTITLE0=Mankind (Part 1)
TTITLE1=Mankind (Part 2)
TTITLE2=Shade Of The Light (Part 1&2)
TTITLE3=Shade Of The Light (Part 3)
TTITLE4=Transcendental Twins
EXTD=
EXTT0=
EXTT1=
EXTT2=
EXTT3=
EXTT4=
PLAYORDER=
